<?xml version="1.0" encoding="utf-8" ?>
<svg xmlns="http://www.w3.org/2000/svg" xmlns:xlink="http://www.w3.org/1999/xlink" width="512" height="512">
	<path fill="#2C314D" transform="scale(0.5 0.5)" d="M302.251 20.2453L318.433 20.1269C348.63 20.3983 376.483 29.7727 397.91 51.6645C409.586 63.5944 417.913 79.3098 421.751 95.5128C424.507 107.147 424.453 119.088 424.48 130.967C424.505 141.913 424.506 152.86 424.489 163.807C424.439 195.539 424.45 227.299 424.094 259.028C430.229 258.943 435.435 258.45 440.297 262.982C443.826 266.271 445.952 270.617 445.939 275.5C445.926 280.056 443.764 284.212 440.562 287.364C435.805 292.046 430.227 291.627 424.036 291.695C424.118 306.943 424.188 322.19 424.229 337.438C424.277 355.179 425.349 374.077 420.744 391.344C417.577 403.219 411.171 415.062 404.018 425C398.178 433.113 390.776 440.338 382.5 445.948C381.583 446.57 376.297 449.312 375.955 449.926C375.644 450.483 375.871 453.977 375.854 454.78C375.484 471.595 375.418 487.576 365.988 502.25C357.587 515.321 344.336 523.627 329.273 526.915L328.991 655.778L611.441 655.554C642.467 655.146 672.622 647.077 694.803 624.184C712.194 606.235 724.747 579.236 727.65 554.4C729.682 537.018 728.647 518.644 728.793 501.135C729.008 475.442 728.923 449.787 728.496 424.095C721.14 424.063 713.685 423.006 706.429 421.882C674.531 416.941 648.271 404.474 622.677 384.949C613.01 377.575 604.082 368.156 596.351 358.776C590.501 351.678 584.856 344.414 580.037 336.562C565.073 312.179 556.41 285.022 552.72 256.781C546.502 209.193 558.502 162.256 587.85 124.229C616.157 87.5499 658.44 63.608 704.358 57.6753C754.493 51.1977 803.093 64.956 842.971 95.7901C878.46 123.231 903.463 168.145 908.979 212.564C915.645 266.251 899.787 317.601 866.524 359.93C844.458 388.011 814.615 407.914 780.211 417.393C772.939 419.397 765.778 421.24 758.272 422.096C757.705 435.198 758.091 448.388 758.23 461.497C758.383 475.919 758.312 490.345 758.373 504.767C758.436 519.653 758.947 535.047 757.579 549.87C756.427 562.347 753.833 575.105 750.104 587.077C742.59 610.957 729.217 631.459 711.38 648.872C693.554 666.273 671.357 676.324 647.15 681.329C626.979 685.5 606.826 684.569 586.367 684.609C564.714 684.653 543.062 684.66 521.409 684.687C505.811 684.707 490.213 684.989 474.614 684.934C457.382 684.874 440.153 684.439 422.92 684.547C391.598 684.744 360.268 685.56 328.943 685.256L328.766 745.072C337.645 746.607 344.886 750.908 351.176 757.269C355.432 761.573 358.761 766.671 360.216 772.609C361.94 779.648 360.913 788.618 360.871 795.84C360.799 808.239 360.733 820.639 360.666 833.038C399.105 832.929 437.561 832.976 476.002 832.99C487.074 832.994 498.147 833.035 509.218 832.965C514.77 832.929 520.538 832.366 526.065 832.843C531.959 833.352 537.677 834.896 542.984 837.52C553.752 842.846 563.039 852.628 566.853 864.159L567.124 865C568.352 868.719 569.243 872.58 569.541 876.494C570.478 888.798 569.785 901.722 569.839 914.111C569.88 923.656 569.931 933.202 569.944 942.747C569.953 949.437 570.317 956.372 569.046 962.969C566.559 975.875 560.153 988.917 548.972 996.34C543.499 999.973 536.044 1003.1 529.376 1003.48C519.811 1004.02 509.925 1003.3 500.323 1003.3C480.312 1003.3 460.302 1003.53 440.288 1003.49C377.49 1003.4 314.679 1003.06 251.882 1003.2C209.38 1003.29 166.873 1003.19 124.371 1003.39C113.645 1003.44 102.92 1003.49 92.1961 1003.65C82.7534 1003.79 72.1464 1004.65 62.872 1002.76C51.1652 1000.38 41.5425 993.165 35.17 983.162C31.4656 977.347 28.8239 970.433 27.7919 963.607C26.2735 953.566 27.4656 942.183 27.4297 931.983C27.3882 920.204 27.3042 908.424 27.2903 896.645C27.2815 889.259 26.5859 880.695 28.2171 873.477C30.8856 861.668 37.3755 850.179 47.6366 843.309C53.7681 839.204 60.379 835.319 67.7497 834.006C73.4632 832.989 79.5355 833.35 85.3242 833.326C94.6895 833.287 104.055 833.254 113.42 833.255C147.38 833.258 181.34 833.43 215.3 833.513C216.339 819.203 215.61 804.337 215.719 789.962C215.759 784.599 215.202 778.073 216.439 772.854C217.428 768.682 219.624 764.287 222.339 760.971C228.892 752.971 237.553 748.408 247.778 747.302L247.59 529.269C247.583 528.984 247.591 527.149 247.538 527.098C247.248 526.824 244.261 526.229 243.701 526.068C240.187 525.058 236.837 523.933 233.5 522.431C228.121 520.01 222.996 516.62 218.749 512.529C200.948 495.382 200.152 473.584 199.749 450.503L184.75 438.808C166.74 422.423 154.984 399.923 152.365 375.652C151.29 365.686 151.593 355.504 151.578 345.492C151.554 327.84 151.827 310.151 150.97 292.515C147.262 292.559 143.88 292.7 140.405 291.174C136.08 289.274 132.521 285.504 130.84 281.085C129.374 277.233 129.088 273.3 130.884 269.502C133.122 264.771 136.746 261.314 141.735 259.584L142.464 259.342C145.484 258.302 148.625 258.43 151.784 258.386C152.296 256.145 151.811 253.151 151.755 250.8C151.216 228.157 151.778 205.383 151.736 182.724C151.71 169.054 151.655 155.385 151.64 141.716C151.62 123.874 151.092 105.786 155.928 88.4301C159.823 74.4503 167.836 62.0197 177.844 51.6282C195.438 33.3599 219.824 23.3034 244.803 20.9124C252.18 20.2062 259.721 20.4925 267.132 20.4913C278.842 20.4893 290.543 20.4856 302.251 20.2453Z"/>
	<path fill="#11121D" transform="scale(0.5 0.5)" d="M75.3823 862.731L76.0889 862.44C78.9957 861.821 83.2268 862.314 86.2364 862.303C97.9626 862.257 109.641 862.5 121.355 862.75C140.094 863.148 158.903 862.928 177.649 862.944C214.164 862.975 250.684 863.05 287.198 862.956C304.207 862.913 321.263 862.496 338.266 862.629C371.425 862.888 404.576 862.756 437.734 862.938C466.653 863.096 495.589 863.691 524.5 862.814C525.889 862.772 527.424 862.584 528.663 863.344L529.5 863.9C532.316 865.517 534.515 867.754 536.21 870.556L536.617 871.25C541.161 878.914 539.373 887.095 538.802 895.497C537.968 894.689 538.768 881.276 538.262 878.766C537.484 874.904 535.094 870.606 532.352 867.75C531.066 866.41 528.37 864.222 526.554 863.766C524.618 863.28 520.412 863.93 518.25 863.968C510.081 864.111 501.907 864.211 493.736 864.176C444.784 863.964 395.829 864.078 346.875 864.071C285.311 863.735 223.744 864.773 162.186 864.496C142.316 864.406 122.444 864.222 102.574 864.077C96.7318 864.034 90.8878 863.968 85.0455 863.98C81.5763 863.988 77.8318 863.783 74.4158 864.419L73.75 864.553C69.9551 865.265 66.4138 866.723 63.75 869.656C61.8542 871.744 60.8051 874.174 60.3626 876.932C59.505 882.278 59.7174 888.237 59.7115 893.661C59.7022 902.24 59.7359 910.818 59.7015 919.397C59.6386 935.082 58.6695 950.933 59.0529 966.581C60.457 968.873 65.5457 970.853 68.1322 971.468L68.9434 971.652C74.338 972.946 80.341 972.464 85.8496 972.215C90.4537 972.006 95.0782 971.979 99.6862 971.895C117.117 971.579 134.566 971.176 151.998 971.675L151.75 972L145.5 972L145.248 972.375L146.75 972.5L146.75 973.245L126.75 973.245L126.25 973.745C121.41 973.755 116.571 973.763 111.731 973.762C109.345 973.761 106.348 974.097 104.03 973.637L103.502 973.497L102.923 973.356L102.5 973.245C101.135 974.155 98.6639 973.745 97 973.745C95.5816 972.803 92.7437 973.247 91 973.245C89.358 974.34 84.1727 973.745 82 973.745C80.4176 974.8 76.4965 974.245 74.5 974.245C73.0393 973.274 71.2079 974.026 69.5025 973.497L68.75 973.245C68.0604 973.058 67.4148 972.979 66.7216 972.748L66.0025 972.497L63.267 971.387L62.5025 970.997C60.6078 970.05 58.9374 969.068 57.7759 967.25C58.8013 960.731 58.3426 953.819 58.4004 947.224C58.5341 931.966 58.3858 916.729 58.33 901.473C58.3021 893.847 57.7439 885.634 58.5515 878.066L58.6163 877.503C58.9458 874.361 59.7756 871.547 61.67 868.965L62.0271 868.503C63.5624 866.245 66.4754 864.013 69.1887 863.381L69.75 863.271C71.6267 862.665 73.4007 862.764 75.3823 862.731Z"/>
	<path fill="#404C6B" transform="scale(0.5 0.5)" d="M300.105 778.462L329 778.334L329.057 833.182L296.529 833.376L298.5 832.5L300.105 778.462Z"/>
	<path fill="#404C6B" transform="scale(0.5 0.5)" d="M268.491 464.433C280.191 463.525 292.273 463.796 304 464.103C318.072 464.472 331.45 465.097 345.054 460.447C344.114 471.361 343.193 482.73 334.254 490.356C322.416 500.455 304.615 499.85 290 499.562C284.95 499.463 279.774 499.795 274.75 499.379L272.979 499.058L285.758 499.023C291.635 488.743 293.519 475.983 295.831 464.472L268.491 464.433Z"/>
	<path fill="#4D5873" transform="scale(0.5 0.5)" d="M272.979 499.058C266.031 499.079 259.706 497.992 253 496.404C249.611 495.601 245.841 493.932 242.983 491.893C232.785 484.617 232.097 472.863 230.039 461.55C234.992 461.984 240.134 463.561 245.199 464.113C252.833 464.946 260.81 464.507 268.491 464.433L295.831 464.472C293.519 475.983 291.635 488.743 285.758 499.023L272.979 499.058Z"/>
	<path fill="#4D5873" transform="scale(0.5 0.5)" d="M286.618 529.777L294.116 529.745C294.314 544.226 293.984 558.75 293.957 573.236C293.898 604.765 293.866 636.295 293.818 667.825C293.788 687.671 294.083 707.515 294.019 727.362C294.005 731.633 293.991 735.904 293.943 740.174C293.925 741.817 294.033 744.175 293.249 745.626C292.922 746.23 291.618 746.411 290.969 746.615L287.25 746.399C286.417 746.268 284.906 745.948 284.469 745.152C283.931 744.173 284.006 743.375 283.99 742.304C283.905 736.385 284.506 730.452 284.559 724.521C284.718 706.932 284.758 689.34 284.909 671.75C285.149 643.768 284.606 615.791 284.702 587.811C284.75 573.97 284.734 560.135 284.595 546.295C284.56 542.845 284.552 539.389 284.41 535.942C284.333 534.064 283.889 531.891 284.5 530.113L286.618 529.777Z"/>
	<path fill="#4D5873" transform="scale(0.5 0.5)" d="M296.529 833.376L248.431 832.96C248.112 831.25 248.513 829.056 248.619 827.302C248.831 823.767 248.975 820.239 249.041 816.699C249.279 803.887 249.299 790.973 248.522 778.177L300.105 778.462L298.5 832.5L296.529 833.376Z"/>
	<path fill="#DC0029" transform="scale(0.5 0.5)" d="M328.919 292.469C342.562 292.479 356.206 292.487 369.849 292.479C377.478 292.475 385.522 292.926 393.09 292.074C393.159 307.275 393.186 322.476 393.224 337.678C393.247 346.546 393.359 355.409 393.144 364.276C392.993 370.504 392.927 376.776 391.291 382.833C388.314 393.856 382.108 403.798 374.077 411.839C363.006 422.924 346.757 430.82 331.184 432.621L328.919 292.469Z"/>
	<path fill="#DC0029" transform="scale(0.5 0.5)" d="M328.954 51.4211C346.954 52.4078 363.958 59.9749 376.093 73.4903C383.057 81.2469 388.493 90.7862 390.903 100.986C392.807 109.042 393.035 117.288 393.177 125.529C393.346 135.345 393.197 145.164 393.139 154.981C392.996 179.087 392.932 203.197 393.245 227.302C393.377 237.449 393.002 247.935 393.752 258.029C379.19 258.25 364.631 258.438 350.067 258.435C343.73 258.434 336.935 258.927 330.649 258.181L328.954 51.4211Z"/>
	<path fill="#FEFEFE" transform="scale(0.5 0.5)" d="M596.849 304.344C590.989 290.088 585.908 276.013 583.298 260.753C576.213 219.324 585.351 178.685 609.709 144.412C631.877 113.22 666.983 93.3338 704.5 87.1713C742.402 80.9456 785.176 91.2104 816.414 113.322C814.966 124.746 813.972 136.196 812.318 147.605C811.624 152.395 811.242 158.774 808.823 163.023C788.468 142.238 759.854 131.808 731 131.589C700.523 131.357 673.389 141.882 651.795 163.438C630.654 184.541 619.006 215.627 619.071 245.396C619.104 260.282 621.339 274.929 627.368 288.634C625.912 290.228 622.578 290.566 620.452 291.19C616.713 292.287 613.066 293.374 609.56 295.1C604.827 297.431 600.639 300.697 596.849 304.344Z"/>
	<path fill="#F11D3F" transform="scale(0.5 0.5)" d="M331.184 432.621C326.666 433.194 321.981 432.972 317.432 432.971C310.558 432.971 303.683 432.976 296.809 432.974C283.951 432.97 271.092 432.979 258.235 432.826C251.861 432.75 244.347 433.359 238.176 431.787C229.253 429.514 220.931 426.642 213.159 421.569C198.673 412.113 187.663 395.886 183.918 379C181.318 367.278 182.606 353.93 182.647 341.916C182.704 325.396 182.741 308.865 182.347 292.349L328.919 292.469L331.184 432.621Z"/>
	<path fill="#8D8586" transform="scale(0.5 0.5)" d="M816.414 113.322C822.118 116.626 827.375 121.566 832.162 126.071C852.849 145.539 868.226 169.083 875.579 196.662C886.292 236.835 880.527 280.803 859.451 316.79C846.498 338.906 827.368 361.385 805.404 375.08C794.92 381.616 781.903 386.733 769.929 389.794C739.498 397.572 707.683 395.814 678.591 383.687C671.383 380.682 664.576 376.759 657.888 372.75C635.324 359.226 617.152 340.256 603.752 317.715C601.483 313.898 597.964 308.606 596.849 304.344C600.639 300.697 604.827 297.431 609.56 295.1C613.066 293.374 616.713 292.287 620.452 291.19C622.578 290.566 625.912 290.228 627.368 288.634L629.238 292.108C631.974 296.891 635.595 301.22 639.088 305.465C655.139 324.977 675.101 338.025 699.5 344.615C727.031 352.051 759.899 346.196 784.305 332.046C808.024 318.295 827.039 294.117 833.884 267.445C841.051 239.514 837.779 207.966 823.106 182.94C820.596 178.659 817.637 174.532 814.575 170.629C812.819 168.391 810.546 166.058 809.148 163.609L808.823 163.023C811.242 158.774 811.624 152.395 812.318 147.605C813.972 136.196 814.966 124.746 816.414 113.322Z"/>
	<defs>
		<linearGradient id="gradient_0" gradientUnits="userSpaceOnUse" x1="327.75" y1="52.25" x2="291.08301" y2="274.84799">
			<stop offset="0" stop-color="#DD0C2A"/>
			<stop offset="1" stop-color="#FF2448"/>
		</linearGradient>
	</defs>
	<path fill="url(#gradient_0)" transform="scale(0.5 0.5)" d="M330.649 258.181L182.884 258.02L182.814 254.659C182.514 224.909 183.117 195.125 183.14 165.371C183.148 154.503 183.147 143.634 183.104 132.766C183.062 122.31 182.356 111.602 184.854 101.359C187.666 89.8318 193.909 80.03 202.169 71.6186C208.343 65.3322 215.693 59.6982 224.047 56.6505C242.454 49.9346 264.388 51.9389 283.682 51.8006C298.773 51.6925 313.863 51.5524 328.954 51.4211L330.649 258.181Z"/>
	<path fill="#2C314D" transform="scale(0.5 0.5)" d="M627.368 288.634C621.339 274.929 619.104 260.282 619.071 245.396C619.006 215.627 630.654 184.541 651.795 163.438C673.389 141.882 700.523 131.357 731 131.589C759.854 131.808 788.468 142.238 808.823 163.023L809.148 163.609C810.546 166.058 812.819 168.391 814.575 170.629C817.637 174.532 820.596 178.659 823.106 182.94C837.779 207.966 841.051 239.514 833.884 267.445C827.039 294.117 808.024 318.295 784.305 332.046C759.899 346.196 727.031 352.051 699.5 344.615C675.101 338.025 655.139 324.977 639.088 305.465C635.595 301.22 631.974 296.891 629.238 292.108L627.368 288.634Z"/>
	<path fill="#FEFEFE" transform="scale(0.5 0.5)" d="M729.029 160.72C749.159 161.304 767.653 165.644 783.287 179.05C797.944 191.619 807.137 211.507 808.502 230.672C810.076 252.778 803.992 273.69 789.301 290.502C773.257 308.861 752.536 316.917 728.726 318.429C707.932 318.804 688.107 313.2 672.25 299.307C668.183 295.743 664.607 291.737 660.973 287.75C658.44 284.972 655.753 282.178 654.022 278.802C650.286 271.52 648.937 261.057 648.433 252.99C646.894 228.319 653.236 205.557 669.953 186.914C680.826 174.788 694.325 166.367 710.299 162.818C716.464 161.448 722.741 161.019 729.029 160.72Z"/>
	<path fill="#2C314D" transform="scale(0.5 0.5)" d="M662.755 273.25L663.64 273.2C665.115 273.36 665.665 274.056 666.521 275.134C667.766 276.698 669.168 279.615 668.637 281.666C668.076 283.83 666.112 285.032 664.25 285.935L662.25 285.853C660.612 285.025 659.641 283.905 658.849 282.237C658.019 280.488 657.651 278.231 658.489 276.414C659.363 274.519 660.91 273.875 662.755 273.25Z"/>
</svg>
